<svg t="1749435341821" class="icon" viewBox="0 0 1024 1024" version="1.1" xmlns="http://www.w3.org/2000/svg" p-id="10640" width="256" height="256">
    <!-- 主体矩形框（蓝色） -->
    <path d="M745.216 896H278.784a117.888 117.888 0 0 1-108.117-125.653V509.696a117.888 117.888 0 0 1 108.117-125.653h466.432a117.888 117.888 0 0 1 108.117 125.653v260.65A117.888 117.888 0 0 1 745.216 896z m-446.55-426.667A45.824 45.824 0 0 0 256 512v256a45.824 45.824 0 0 0 42.667 42.667h426.666c21.334-1.707 44.16-14.251 42.667-35.755V512a45.824 45.824 0 0 0-42.667-42.667z" p-id="10641" fill="#1296db"></path>
    <!-- 底部两个小矩形装饰（蓝色） -->
    <path d="M384 554.667q42.667 0 42.667 42.666v85.334q0 42.666-42.667 42.666t-42.667-42.666v-85.334q0-42.666 42.667-42.666zM640 554.667q42.667 0 42.667 42.666v85.334q0 42.666-42.667 42.666t-42.667-42.666v-85.334q0-42.666 42.667-42.666z" p-id="10642" fill="#1296db"></path>
    <!-- 中间文字/图标部分（蓝色） -->
    <path d="M511.787 298.027l-42.667 128h85.333z" p-id="10642" fill="#1296db"></path>
</svg>